<mxfile host="app.diagrams.net" modified="2023-12-31T20:47:51.367Z" agent="Mozilla/5.0 (X11; Linux x86_64) AppleWebKit/537.36 (KHTML, like Gecko) Chrome/120.0.0.0 Safari/537.36" etag="ujgA2cGmyE_G6umDixtv" version="22.1.15" type="github" pages="3">
  <diagram name="VPN or Ports" id="e_FpkX2im6m9XWSfku2d">
    <mxGraphModel dx="1266" dy="918" grid="0" gridSize="10" guides="1" tooltips="1" connect="1" arrows="1" fold="1" page="0" pageScale="1" pageWidth="850" pageHeight="1100" background="#114B5F" math="0" shadow="0">
      <root>
        <mxCell id="0" />
        <mxCell id="1" parent="0" />
        <mxCell id="RKk0ygJff3ijAi9sIS6_-1" style="edgeStyle=orthogonalEdgeStyle;rounded=1;orthogonalLoop=1;jettySize=auto;html=1;strokeColor=none;strokeWidth=3;labelBackgroundColor=#114B5F;fontColor=#E4FDE1;" edge="1" parent="1">
          <mxGeometry relative="1" as="geometry">
            <mxPoint x="646" y="286" as="sourcePoint" />
            <mxPoint x="651" y="307" as="targetPoint" />
          </mxGeometry>
        </mxCell>
        <mxCell id="RKk0ygJff3ijAi9sIS6_-2" value="&lt;font style=&quot;font-size: 15px;&quot;&gt;Home or Office&lt;/font&gt;" style="swimlane;whiteSpace=wrap;html=1;fontFamily=Helvetica;fontSize=11;fontColor=default;labelBackgroundColor=none;" vertex="1" parent="1">
          <mxGeometry x="21" y="26" width="285" height="409" as="geometry" />
        </mxCell>
        <mxCell id="RKk0ygJff3ijAi9sIS6_-3" style="edgeStyle=orthogonalEdgeStyle;shape=connector;curved=1;rounded=1;comic=0;orthogonalLoop=1;jettySize=auto;html=1;dashed=1;labelBackgroundColor=#114B5F;strokeColor=#d6b656;strokeWidth=3;fontFamily=Helvetica;fontSize=11;fontColor=#E4FDE1;endArrow=none;endFill=0;fillColor=#fff2cc;gradientColor=#ffd966;flowAnimation=0;fixDash=0;" edge="1" parent="RKk0ygJff3ijAi9sIS6_-2" source="RKk0ygJff3ijAi9sIS6_-4" target="RKk0ygJff3ijAi9sIS6_-5">
          <mxGeometry relative="1" as="geometry">
            <Array as="points">
              <mxPoint x="151" y="140" />
              <mxPoint x="151" y="140" />
            </Array>
          </mxGeometry>
        </mxCell>
        <mxCell id="RKk0ygJff3ijAi9sIS6_-4" value="&lt;font style=&quot;font-size: 18px;&quot;&gt;UniFi&amp;nbsp;&lt;br&gt;Devices&lt;br&gt;&lt;/font&gt;" style="sketch=0;pointerEvents=1;shadow=0;dashed=0;html=1;strokeColor=none;fillColor=none;labelPosition=center;verticalLabelPosition=bottom;verticalAlign=top;align=center;outlineConnect=0;shape=mxgraph.veeam2.nas;fontFamily=Helvetica;fontSize=11;fontColor=#E4FDE1;" vertex="1" parent="RKk0ygJff3ijAi9sIS6_-2">
          <mxGeometry x="20" y="97" width="90.5" height="75" as="geometry" />
        </mxCell>
        <mxCell id="RKk0ygJff3ijAi9sIS6_-5" value="&lt;font style=&quot;font-size: 17px&quot;&gt;Firewall&lt;br&gt;VPN&lt;br&gt;&lt;/font&gt;" style="fontColor=#E4FDE1;verticalAlign=top;verticalLabelPosition=bottom;labelPosition=center;align=center;html=1;outlineConnect=0;fillColor=#F45B69;strokeColor=#028090;gradientDirection=north;strokeWidth=2;shape=mxgraph.networks.firewall;" vertex="1" parent="RKk0ygJff3ijAi9sIS6_-2">
          <mxGeometry x="185" y="97" width="80" height="80" as="geometry" />
        </mxCell>
        <mxCell id="RKk0ygJff3ijAi9sIS6_-40" value="" style="editableCssRules=.*;html=1;shape=image;verticalLabelPosition=bottom;labelBackgroundColor=#ffffff;verticalAlign=top;aspect=fixed;imageAspect=0;image=data:image/svg+xml,PHN2ZyB4bWxucz0iaHR0cDovL3d3dy53My5vcmcvMjAwMC9zdmciIHhtbG5zOnY9Imh0dHBzOi8vdmVjdGEuaW8vbmFubyIgd2lkdGg9IjMxMC43NzU2MDY1NDM4NjAyNSIgaGVpZ2h0PSIzNzcuOTUzMDI4ODM1NTI1NDYiIHZpZXdCb3g9Ii0wLjE0MDAwMDAwMDU5NjA0NjQ1IC0wLjQ2NzAwMDAwNzYyOTM5NDUzIDgyLjIyNTk5NzkyNDgwNDY5IDEwMC4wMDAwMDc2MjkzOTQ1MyI+JiN4YTs8c3R5bGUgdHlwZT0idGV4dC9jc3MiPiYjeGE7CS5zdDB7ZmlsbDojNDI4NWY0O30mI3hhOwkuc3Qxe2ZpbGw6IzY2OWRmNjt9JiN4YTsJLnN0MntmaWxsOiNmZmY7fSYjeGE7PC9zdHlsZT4mI3hhOwk8cGF0aCBjbGFzcz0ic3QwIiBkPSJNNDAuOTczLS40NjdsNDEuMTEzIDE3LjQ5M3YyOS42NTRjMCAyNy40MTgtMjQuNjA4IDUwLjgzNi00MS4xMTMgNTIuODUzeiIvPiYjeGE7CTxwYXRoIGNsYXNzPSJzdDEiIGQ9Ik00MC45NzMtLjQ2N0wtLjE0IDE3LjAyNXYyOS42NTRjMCAyNy40MTggMjQuNjA4IDUwLjgzNiA0MS4xMTMgNTIuODUzeiIvPiYjeGE7CTxwYXRoIGNsYXNzPSJzdDIiIGQ9Ik00MS4yNTMgMTYuNjA1Yy05LjU4NCAwLTE3LjQ0NSA3Ljg2Mi0xNy40NDUgMTcuNDQ1IDAgOC4wODQgNS41OTQgMTQuOTQyIDEzLjA5NiAxNi44OTF2OS40ODhoLTkuODY5djguNzAxaDkuODY5djUuMzc3aC02LjMxNXY4LjcwMWg2LjMxNXYyLjE5N2g4LjcwMVY1MC45NDFDNTMuMTA2IDQ4Ljk5MiA1OC43IDQyLjEzNCA1OC43IDM0LjA1YzAtOS41ODQtNy44NjMtMTcuNDQ1LTE3LjQ0Ny0xNy40NDV6bTAgOC42OTlBOC42OCA4LjY4IDAgMCAxIDUwIDM0LjA1YTguNjggOC42OCAwIDAgMS04Ljc0OCA4Ljc0NiA4LjY4IDguNjggMCAwIDEtOC43NDYtOC43NDYgOC42OCA4LjY4IDAgMCAxIDguNzQ2LTguNzQ2eiIvPiYjeGE7PC9zdmc+;fontFamily=Helvetica;fontSize=11;fontColor=#E4FDE1;" vertex="1" parent="RKk0ygJff3ijAi9sIS6_-2">
          <mxGeometry x="33.25" y="239" width="64" height="80" as="geometry" />
        </mxCell>
        <mxCell id="RKk0ygJff3ijAi9sIS6_-7" value="" style="edgeStyle=orthogonalEdgeStyle;rounded=1;orthogonalLoop=1;jettySize=auto;html=1;strokeColor=none;strokeWidth=3;labelBackgroundColor=#114B5F;fontColor=#E4FDE1;" edge="1" parent="1" source="iiwOg83E_ArxONMg9rtH-3">
          <mxGeometry relative="1" as="geometry">
            <mxPoint x="137" y="171" as="sourcePoint" />
            <mxPoint x="561" y="236" as="targetPoint" />
          </mxGeometry>
        </mxCell>
        <mxCell id="RKk0ygJff3ijAi9sIS6_-13" value="&lt;font style=&quot;font-size: 15px;&quot;&gt;Off Site Locations&lt;/font&gt;" style="swimlane;whiteSpace=wrap;html=1;fontFamily=Helvetica;fontSize=11;fontColor=default;labelBackgroundColor=none;" vertex="1" parent="1">
          <mxGeometry x="794" y="26" width="285" height="412" as="geometry" />
        </mxCell>
        <mxCell id="RKk0ygJff3ijAi9sIS6_-24" value="" style="verticalLabelPosition=bottom;html=1;verticalAlign=top;align=center;strokeColor=none;fillColor=#00BEF2;shape=mxgraph.azure.mobile;pointerEvents=1;fontFamily=Helvetica;fontSize=11;fontColor=#E4FDE1;" vertex="1" parent="RKk0ygJff3ijAi9sIS6_-13">
          <mxGeometry x="175" y="159" width="56" height="82" as="geometry" />
        </mxCell>
        <mxCell id="RKk0ygJff3ijAi9sIS6_-27" value="" style="shape=umlActor;verticalLabelPosition=bottom;verticalAlign=top;html=1;outlineConnect=0;fontFamily=Helvetica;fontSize=11;fontColor=#E4FDE1;" vertex="1" parent="RKk0ygJff3ijAi9sIS6_-13">
          <mxGeometry x="74" y="159" width="53" height="98" as="geometry" />
        </mxCell>
        <mxCell id="RKk0ygJff3ijAi9sIS6_-41" value="" style="editableCssRules=.*;html=1;shape=image;verticalLabelPosition=bottom;labelBackgroundColor=#ffffff;verticalAlign=top;aspect=fixed;imageAspect=0;image=data:image/svg+xml,PHN2ZyB4bWxucz0iaHR0cDovL3d3dy53My5vcmcvMjAwMC9zdmciIHhtbG5zOnY9Imh0dHBzOi8vdmVjdGEuaW8vbmFubyIgd2lkdGg9IjMxMC43NzU2MDY1NDM4NjAyNSIgaGVpZ2h0PSIzNzcuOTUzMDI4ODM1NTI1NDYiIHZpZXdCb3g9Ii0wLjE0MDAwMDAwMDU5NjA0NjQ1IC0wLjQ2NzAwMDAwNzYyOTM5NDUzIDgyLjIyNTk5NzkyNDgwNDY5IDEwMC4wMDAwMDc2MjkzOTQ1MyI+JiN4YTs8c3R5bGUgdHlwZT0idGV4dC9jc3MiPiYjeGE7CS5zdDB7ZmlsbDojNDI4NWY0O30mI3hhOwkuc3Qxe2ZpbGw6IzY2OWRmNjt9JiN4YTsJLnN0MntmaWxsOiNmZmY7fSYjeGE7PC9zdHlsZT4mI3hhOwk8cGF0aCBjbGFzcz0ic3QwIiBkPSJNNDAuOTczLS40NjdsNDEuMTEzIDE3LjQ5M3YyOS42NTRjMCAyNy40MTgtMjQuNjA4IDUwLjgzNi00MS4xMTMgNTIuODUzeiIvPiYjeGE7CTxwYXRoIGNsYXNzPSJzdDEiIGQ9Ik00MC45NzMtLjQ2N0wtLjE0IDE3LjAyNXYyOS42NTRjMCAyNy40MTggMjQuNjA4IDUwLjgzNiA0MS4xMTMgNTIuODUzeiIvPiYjeGE7CTxwYXRoIGNsYXNzPSJzdDIiIGQ9Ik00MS4yNTMgMTYuNjA1Yy05LjU4NCAwLTE3LjQ0NSA3Ljg2Mi0xNy40NDUgMTcuNDQ1IDAgOC4wODQgNS41OTQgMTQuOTQyIDEzLjA5NiAxNi44OTF2OS40ODhoLTkuODY5djguNzAxaDkuODY5djUuMzc3aC02LjMxNXY4LjcwMWg2LjMxNXYyLjE5N2g4LjcwMVY1MC45NDFDNTMuMTA2IDQ4Ljk5MiA1OC43IDQyLjEzNCA1OC43IDM0LjA1YzAtOS41ODQtNy44NjMtMTcuNDQ1LTE3LjQ0Ny0xNy40NDV6bTAgOC42OTlBOC42OCA4LjY4IDAgMCAxIDUwIDM0LjA1YTguNjggOC42OCAwIDAgMS04Ljc0OCA4Ljc0NiA4LjY4IDguNjggMCAwIDEtOC43NDYtOC43NDYgOC42OCA4LjY4IDAgMCAxIDguNzQ2LTguNzQ2eiIvPiYjeGE7PC9zdmc+;fontFamily=Helvetica;fontSize=11;fontColor=#E4FDE1;" vertex="1" parent="RKk0ygJff3ijAi9sIS6_-13">
          <mxGeometry x="74" y="282" width="64" height="80" as="geometry" />
        </mxCell>
        <mxCell id="iiwOg83E_ArxONMg9rtH-2" value="" style="outlineConnect=0;dashed=0;verticalLabelPosition=bottom;verticalAlign=top;align=center;html=1;shape=mxgraph.aws3.vpn_connection;fillColor=#F58534;gradientColor=none;fontFamily=Helvetica;fontSize=11;fontColor=#E4FDE1;" vertex="1" parent="RKk0ygJff3ijAi9sIS6_-13">
          <mxGeometry x="173.75" y="115" width="58.5" height="48" as="geometry" />
        </mxCell>
        <mxCell id="RKk0ygJff3ijAi9sIS6_-34" value="&lt;font style=&quot;font-size: 15px;&quot;&gt;Internet&lt;/font&gt;" style="swimlane;whiteSpace=wrap;html=1;fontFamily=Helvetica;fontSize=11;fontColor=default;labelBackgroundColor=none;" vertex="1" parent="1">
          <mxGeometry x="401" y="26" width="285" height="409" as="geometry" />
        </mxCell>
        <mxCell id="Rm9t51RLAYrqQ5xL23AL-1" value="" style="image;aspect=fixed;perimeter=ellipsePerimeter;html=1;align=center;shadow=0;dashed=0;spacingTop=3;image=img/lib/active_directory/internet_cloud.svg;fontFamily=Helvetica;fontSize=11;fontColor=#E4FDE1;" vertex="1" parent="RKk0ygJff3ijAi9sIS6_-34">
          <mxGeometry x="67" y="97" width="136.51" height="86" as="geometry" />
        </mxCell>
        <mxCell id="iiwOg83E_ArxONMg9rtH-1" value="Data Encrypted&lt;br&gt;Via VPN" style="text;html=1;strokeColor=none;fillColor=none;align=center;verticalAlign=middle;whiteSpace=wrap;rounded=0;fontSize=23;fontFamily=Helvetica;fontColor=#E4FDE1;fontStyle=1" vertex="1" parent="RKk0ygJff3ijAi9sIS6_-34">
          <mxGeometry x="14.759999999999991" y="164" width="241" height="122" as="geometry" />
        </mxCell>
        <mxCell id="Rm9t51RLAYrqQ5xL23AL-2" style="edgeStyle=orthogonalEdgeStyle;shape=connector;curved=1;rounded=1;comic=0;orthogonalLoop=1;jettySize=auto;html=1;dashed=1;labelBackgroundColor=#114B5F;strokeColor=#d6b656;strokeWidth=3;align=center;verticalAlign=middle;fontFamily=Helvetica;fontSize=11;fontColor=#E4FDE1;endArrow=none;endFill=0;fillColor=#fff2cc;gradientColor=#ffd966;flowAnimation=0;" edge="1" parent="1" source="RKk0ygJff3ijAi9sIS6_-5" target="Rm9t51RLAYrqQ5xL23AL-1">
          <mxGeometry relative="1" as="geometry" />
        </mxCell>
        <mxCell id="Rm9t51RLAYrqQ5xL23AL-6" style="edgeStyle=orthogonalEdgeStyle;shape=connector;curved=1;rounded=1;comic=0;orthogonalLoop=1;jettySize=auto;html=1;entryX=0.03;entryY=0.02;entryDx=0;entryDy=0;entryPerimeter=0;dashed=1;labelBackgroundColor=#114B5F;strokeColor=#d6b656;strokeWidth=3;align=center;verticalAlign=middle;fontFamily=Helvetica;fontSize=11;fontColor=#E4FDE1;endArrow=none;endFill=0;fillColor=#fff2cc;gradientColor=#ffd966;flowAnimation=0;" edge="1" parent="1" source="Rm9t51RLAYrqQ5xL23AL-1" target="RKk0ygJff3ijAi9sIS6_-24">
          <mxGeometry relative="1" as="geometry">
            <Array as="points">
              <mxPoint x="787" y="166" />
              <mxPoint x="787" y="152" />
              <mxPoint x="971" y="152" />
            </Array>
          </mxGeometry>
        </mxCell>
        <mxCell id="iiwOg83E_ArxONMg9rtH-4" value="" style="edgeStyle=orthogonalEdgeStyle;rounded=1;orthogonalLoop=1;jettySize=auto;html=1;strokeColor=none;strokeWidth=3;labelBackgroundColor=#114B5F;fontColor=#E4FDE1;" edge="1" parent="1" target="iiwOg83E_ArxONMg9rtH-3">
          <mxGeometry relative="1" as="geometry">
            <mxPoint x="137" y="171" as="sourcePoint" />
            <mxPoint x="561" y="236" as="targetPoint" />
          </mxGeometry>
        </mxCell>
        <mxCell id="iiwOg83E_ArxONMg9rtH-3" value="" style="outlineConnect=0;dashed=0;verticalLabelPosition=bottom;verticalAlign=top;align=center;html=1;shape=mxgraph.aws3.vpn_connection;fillColor=#F58534;gradientColor=none;fontFamily=Helvetica;fontSize=11;fontColor=#E4FDE1;" vertex="1" parent="1">
          <mxGeometry x="286" y="142" width="58.5" height="48" as="geometry" />
        </mxCell>
      </root>
    </mxGraphModel>
  </diagram>
  <diagram name="UniFi" id="Gy6H_WSqc-Zs0CO40RMy">
    <mxGraphModel dx="1266" dy="918" grid="0" gridSize="10" guides="1" tooltips="1" connect="1" arrows="1" fold="1" page="0" pageScale="1" pageWidth="850" pageHeight="1100" background="#114B5F" math="0" shadow="0">
      <root>
        <mxCell id="Ec6M8PJLVspDRbuUPbAi-0" />
        <mxCell id="Ec6M8PJLVspDRbuUPbAi-1" parent="Ec6M8PJLVspDRbuUPbAi-0" />
        <mxCell id="Ec6M8PJLVspDRbuUPbAi-2" style="edgeStyle=orthogonalEdgeStyle;rounded=1;orthogonalLoop=1;jettySize=auto;html=1;strokeColor=none;strokeWidth=3;labelBackgroundColor=#114B5F;fontColor=#E4FDE1;" edge="1" parent="Ec6M8PJLVspDRbuUPbAi-1">
          <mxGeometry relative="1" as="geometry">
            <mxPoint x="646" y="286" as="sourcePoint" />
            <mxPoint x="651" y="307" as="targetPoint" />
          </mxGeometry>
        </mxCell>
        <mxCell id="Ec6M8PJLVspDRbuUPbAi-3" value="&lt;font style=&quot;font-size: 15px;&quot;&gt;Home or Office&lt;/font&gt;" style="swimlane;whiteSpace=wrap;html=1;fontFamily=Helvetica;fontSize=11;fontColor=default;labelBackgroundColor=none;" vertex="1" parent="Ec6M8PJLVspDRbuUPbAi-1">
          <mxGeometry x="21" y="26" width="285" height="409" as="geometry" />
        </mxCell>
        <mxCell id="Ec6M8PJLVspDRbuUPbAi-4" style="edgeStyle=orthogonalEdgeStyle;shape=connector;curved=1;rounded=1;comic=0;orthogonalLoop=1;jettySize=auto;html=1;dashed=1;labelBackgroundColor=#114B5F;strokeColor=#d6b656;strokeWidth=3;fontFamily=Helvetica;fontSize=11;fontColor=#E4FDE1;endArrow=none;endFill=0;fillColor=#fff2cc;gradientColor=#ffd966;flowAnimation=0;" edge="1" parent="Ec6M8PJLVspDRbuUPbAi-3" source="Ec6M8PJLVspDRbuUPbAi-5" target="Ec6M8PJLVspDRbuUPbAi-6">
          <mxGeometry relative="1" as="geometry">
            <Array as="points">
              <mxPoint x="66" y="131" />
            </Array>
          </mxGeometry>
        </mxCell>
        <mxCell id="Ec6M8PJLVspDRbuUPbAi-5" value="&lt;font style=&quot;font-size: 18px;&quot;&gt;UniFi&amp;nbsp;&lt;br&gt;Devices&lt;br&gt;&lt;/font&gt;" style="sketch=0;pointerEvents=1;shadow=0;dashed=0;html=1;strokeColor=none;fillColor=none;labelPosition=center;verticalLabelPosition=bottom;verticalAlign=top;align=center;outlineConnect=0;shape=mxgraph.veeam2.nas;fontFamily=Helvetica;fontSize=11;fontColor=#E4FDE1;" vertex="1" parent="Ec6M8PJLVspDRbuUPbAi-3">
          <mxGeometry x="20" y="96" width="90.5" height="75" as="geometry" />
        </mxCell>
        <mxCell id="Ec6M8PJLVspDRbuUPbAi-6" value="&lt;font style=&quot;font-size: 17px&quot;&gt;Firewall&lt;br&gt;Public IP &amp;amp;&lt;br&gt;Open&amp;nbsp;Ports&lt;br&gt;&lt;/font&gt;" style="fontColor=#E4FDE1;verticalAlign=top;verticalLabelPosition=bottom;labelPosition=center;align=center;html=1;outlineConnect=0;fillColor=#F45B69;strokeColor=#028090;gradientDirection=north;strokeWidth=2;shape=mxgraph.networks.firewall;" vertex="1" parent="Ec6M8PJLVspDRbuUPbAi-3">
          <mxGeometry x="185" y="96" width="80" height="80" as="geometry" />
        </mxCell>
        <mxCell id="Ec6M8PJLVspDRbuUPbAi-7" value="" style="editableCssRules=.*;html=1;shape=image;verticalLabelPosition=bottom;labelBackgroundColor=#ffffff;verticalAlign=top;aspect=fixed;imageAspect=0;image=data:image/svg+xml,PHN2ZyB4bWxucz0iaHR0cDovL3d3dy53My5vcmcvMjAwMC9zdmciIHhtbG5zOnY9Imh0dHBzOi8vdmVjdGEuaW8vbmFubyIgd2lkdGg9IjMxMC43NzU2MDY1NDM4NjAyNSIgaGVpZ2h0PSIzNzcuOTUzMDI4ODM1NTI1NDYiIHZpZXdCb3g9Ii0wLjE0MDAwMDAwMDU5NjA0NjQ1IC0wLjQ2NzAwMDAwNzYyOTM5NDUzIDgyLjIyNTk5NzkyNDgwNDY5IDEwMC4wMDAwMDc2MjkzOTQ1MyI+JiN4YTs8c3R5bGUgdHlwZT0idGV4dC9jc3MiPiYjeGE7CS5zdDB7ZmlsbDojNDI4NWY0O30mI3hhOwkuc3Qxe2ZpbGw6IzY2OWRmNjt9JiN4YTsJLnN0MntmaWxsOiNmZmY7fSYjeGE7PC9zdHlsZT4mI3hhOwk8cGF0aCBjbGFzcz0ic3QwIiBkPSJNNDAuOTczLS40NjdsNDEuMTEzIDE3LjQ5M3YyOS42NTRjMCAyNy40MTgtMjQuNjA4IDUwLjgzNi00MS4xMTMgNTIuODUzeiIvPiYjeGE7CTxwYXRoIGNsYXNzPSJzdDEiIGQ9Ik00MC45NzMtLjQ2N0wtLjE0IDE3LjAyNXYyOS42NTRjMCAyNy40MTggMjQuNjA4IDUwLjgzNiA0MS4xMTMgNTIuODUzeiIvPiYjeGE7CTxwYXRoIGNsYXNzPSJzdDIiIGQ9Ik00MS4yNTMgMTYuNjA1Yy05LjU4NCAwLTE3LjQ0NSA3Ljg2Mi0xNy40NDUgMTcuNDQ1IDAgOC4wODQgNS41OTQgMTQuOTQyIDEzLjA5NiAxNi44OTF2OS40ODhoLTkuODY5djguNzAxaDkuODY5djUuMzc3aC02LjMxNXY4LjcwMWg2LjMxNXYyLjE5N2g4LjcwMVY1MC45NDFDNTMuMTA2IDQ4Ljk5MiA1OC43IDQyLjEzNCA1OC43IDM0LjA1YzAtOS41ODQtNy44NjMtMTcuNDQ1LTE3LjQ0Ny0xNy40NDV6bTAgOC42OTlBOC42OCA4LjY4IDAgMCAxIDUwIDM0LjA1YTguNjggOC42OCAwIDAgMS04Ljc0OCA4Ljc0NiA4LjY4IDguNjggMCAwIDEtOC43NDYtOC43NDYgOC42OCA4LjY4IDAgMCAxIDguNzQ2LTguNzQ2eiIvPiYjeGE7PC9zdmc+;fontFamily=Helvetica;fontSize=11;fontColor=#E4FDE1;" vertex="1" parent="Ec6M8PJLVspDRbuUPbAi-3">
          <mxGeometry x="33.25" y="238" width="64" height="80" as="geometry" />
        </mxCell>
        <mxCell id="Ec6M8PJLVspDRbuUPbAi-8" value="" style="edgeStyle=orthogonalEdgeStyle;rounded=1;orthogonalLoop=1;jettySize=auto;html=1;strokeColor=none;strokeWidth=3;labelBackgroundColor=#114B5F;fontColor=#E4FDE1;" edge="1" parent="Ec6M8PJLVspDRbuUPbAi-1">
          <mxGeometry relative="1" as="geometry">
            <mxPoint x="137" y="171" as="sourcePoint" />
            <mxPoint x="561" y="236" as="targetPoint" />
          </mxGeometry>
        </mxCell>
        <mxCell id="Ec6M8PJLVspDRbuUPbAi-9" value="&lt;font style=&quot;font-size: 15px;&quot;&gt;Off Site Locations&lt;/font&gt;" style="swimlane;whiteSpace=wrap;html=1;fontFamily=Helvetica;fontSize=11;fontColor=default;labelBackgroundColor=none;" vertex="1" parent="Ec6M8PJLVspDRbuUPbAi-1">
          <mxGeometry x="794" y="26" width="285" height="412" as="geometry" />
        </mxCell>
        <mxCell id="Ec6M8PJLVspDRbuUPbAi-10" value="" style="verticalLabelPosition=bottom;html=1;verticalAlign=top;align=center;strokeColor=none;fillColor=#00BEF2;shape=mxgraph.azure.mobile;pointerEvents=1;fontFamily=Helvetica;fontSize=11;fontColor=#E4FDE1;" vertex="1" parent="Ec6M8PJLVspDRbuUPbAi-9">
          <mxGeometry x="175" y="159" width="56" height="82" as="geometry" />
        </mxCell>
        <mxCell id="Ec6M8PJLVspDRbuUPbAi-11" value="" style="shape=umlActor;verticalLabelPosition=bottom;verticalAlign=top;html=1;outlineConnect=0;fontFamily=Helvetica;fontSize=11;fontColor=#E4FDE1;" vertex="1" parent="Ec6M8PJLVspDRbuUPbAi-9">
          <mxGeometry x="74" y="159" width="53" height="98" as="geometry" />
        </mxCell>
        <mxCell id="Ec6M8PJLVspDRbuUPbAi-12" value="" style="editableCssRules=.*;html=1;shape=image;verticalLabelPosition=bottom;labelBackgroundColor=#ffffff;verticalAlign=top;aspect=fixed;imageAspect=0;image=data:image/svg+xml,PHN2ZyB4bWxucz0iaHR0cDovL3d3dy53My5vcmcvMjAwMC9zdmciIHhtbG5zOnY9Imh0dHBzOi8vdmVjdGEuaW8vbmFubyIgd2lkdGg9IjMxMC43NzU2MDY1NDM4NjAyNSIgaGVpZ2h0PSIzNzcuOTUzMDI4ODM1NTI1NDYiIHZpZXdCb3g9Ii0wLjE0MDAwMDAwMDU5NjA0NjQ1IC0wLjQ2NzAwMDAwNzYyOTM5NDUzIDgyLjIyNTk5NzkyNDgwNDY5IDEwMC4wMDAwMDc2MjkzOTQ1MyI+JiN4YTs8c3R5bGUgdHlwZT0idGV4dC9jc3MiPiYjeGE7CS5zdDB7ZmlsbDojNDI4NWY0O30mI3hhOwkuc3Qxe2ZpbGw6IzY2OWRmNjt9JiN4YTsJLnN0MntmaWxsOiNmZmY7fSYjeGE7PC9zdHlsZT4mI3hhOwk8cGF0aCBjbGFzcz0ic3QwIiBkPSJNNDAuOTczLS40NjdsNDEuMTEzIDE3LjQ5M3YyOS42NTRjMCAyNy40MTgtMjQuNjA4IDUwLjgzNi00MS4xMTMgNTIuODUzeiIvPiYjeGE7CTxwYXRoIGNsYXNzPSJzdDEiIGQ9Ik00MC45NzMtLjQ2N0wtLjE0IDE3LjAyNXYyOS42NTRjMCAyNy40MTggMjQuNjA4IDUwLjgzNiA0MS4xMTMgNTIuODUzeiIvPiYjeGE7CTxwYXRoIGNsYXNzPSJzdDIiIGQ9Ik00MS4yNTMgMTYuNjA1Yy05LjU4NCAwLTE3LjQ0NSA3Ljg2Mi0xNy40NDUgMTcuNDQ1IDAgOC4wODQgNS41OTQgMTQuOTQyIDEzLjA5NiAxNi44OTF2OS40ODhoLTkuODY5djguNzAxaDkuODY5djUuMzc3aC02LjMxNXY4LjcwMWg2LjMxNXYyLjE5N2g4LjcwMVY1MC45NDFDNTMuMTA2IDQ4Ljk5MiA1OC43IDQyLjEzNCA1OC43IDM0LjA1YzAtOS41ODQtNy44NjMtMTcuNDQ1LTE3LjQ0Ny0xNy40NDV6bTAgOC42OTlBOC42OCA4LjY4IDAgMCAxIDUwIDM0LjA1YTguNjggOC42OCAwIDAgMS04Ljc0OCA4Ljc0NiA4LjY4IDguNjggMCAwIDEtOC43NDYtOC43NDYgOC42OCA4LjY4IDAgMCAxIDguNzQ2LTguNzQ2eiIvPiYjeGE7PC9zdmc+;fontFamily=Helvetica;fontSize=11;fontColor=#E4FDE1;" vertex="1" parent="Ec6M8PJLVspDRbuUPbAi-9">
          <mxGeometry x="74" y="282" width="64" height="80" as="geometry" />
        </mxCell>
        <mxCell id="Ec6M8PJLVspDRbuUPbAi-13" value="&lt;font style=&quot;font-size: 15px;&quot;&gt;Internet&lt;/font&gt;" style="swimlane;whiteSpace=wrap;html=1;fontFamily=Helvetica;fontSize=11;fontColor=default;labelBackgroundColor=none;" vertex="1" parent="Ec6M8PJLVspDRbuUPbAi-1">
          <mxGeometry x="401" y="26" width="285" height="409" as="geometry" />
        </mxCell>
        <mxCell id="tFr5WUy8yFj0PDaDdnyf-1" value="" style="editableCssRules=.*;html=1;shape=image;verticalLabelPosition=bottom;labelBackgroundColor=#ffffff;verticalAlign=top;aspect=fixed;imageAspect=0;image=data:image/svg+xml,PHN2ZyB4bWxucz0iaHR0cDovL3d3dy53My5vcmcvMjAwMC9zdmciIHhtbG5zOnY9Imh0dHBzOi8vdmVjdGEuaW8vbmFubyIgd2lkdGg9IjMxMC43NzU2MDY1NDM4NjAyNSIgaGVpZ2h0PSIzNzcuOTUzMDI4ODM1NTI1NDYiIHZpZXdCb3g9Ii0wLjE0MDAwMDAwMDU5NjA0NjQ1IC0wLjQ2NzAwMDAwNzYyOTM5NDUzIDgyLjIyNTk5NzkyNDgwNDY5IDEwMC4wMDAwMDc2MjkzOTQ1MyI+JiN4YTs8c3R5bGUgdHlwZT0idGV4dC9jc3MiPiYjeGE7CS5zdDB7ZmlsbDojNDI4NWY0O30mI3hhOwkuc3Qxe2ZpbGw6IzY2OWRmNjt9JiN4YTsJLnN0MntmaWxsOiNmZmY7fSYjeGE7PC9zdHlsZT4mI3hhOwk8cGF0aCBjbGFzcz0ic3QwIiBkPSJNNDAuOTczLS40NjdsNDEuMTEzIDE3LjQ5M3YyOS42NTRjMCAyNy40MTgtMjQuNjA4IDUwLjgzNi00MS4xMTMgNTIuODUzeiIvPiYjeGE7CTxwYXRoIGNsYXNzPSJzdDEiIGQ9Ik00MC45NzMtLjQ2N0wtLjE0IDE3LjAyNXYyOS42NTRjMCAyNy40MTggMjQuNjA4IDUwLjgzNiA0MS4xMTMgNTIuODUzeiIvPiYjeGE7CTxwYXRoIGNsYXNzPSJzdDIiIGQ9Ik00MS4yNTMgMTYuNjA1Yy05LjU4NCAwLTE3LjQ0NSA3Ljg2Mi0xNy40NDUgMTcuNDQ1IDAgOC4wODQgNS41OTQgMTQuOTQyIDEzLjA5NiAxNi44OTF2OS40ODhoLTkuODY5djguNzAxaDkuODY5djUuMzc3aC02LjMxNXY4LjcwMWg2LjMxNXYyLjE5N2g4LjcwMVY1MC45NDFDNTMuMTA2IDQ4Ljk5MiA1OC43IDQyLjEzNCA1OC43IDM0LjA1YzAtOS41ODQtNy44NjMtMTcuNDQ1LTE3LjQ0Ny0xNy40NDV6bTAgOC42OTlBOC42OCA4LjY4IDAgMCAxIDUwIDM0LjA1YTguNjggOC42OCAwIDAgMS04Ljc0OCA4Ljc0NiA4LjY4IDguNjggMCAwIDEtOC43NDYtOC43NDYgOC42OCA4LjY4IDAgMCAxIDguNzQ2LTguNzQ2eiIvPiYjeGE7PC9zdmc+;fontFamily=Helvetica;fontSize=11;fontColor=#E4FDE1;" vertex="1" parent="Ec6M8PJLVspDRbuUPbAi-13">
          <mxGeometry x="100.5" y="257" width="64" height="80" as="geometry" />
        </mxCell>
        <mxCell id="Ec6M8PJLVspDRbuUPbAi-15" style="edgeStyle=orthogonalEdgeStyle;shape=connector;curved=1;rounded=1;comic=0;orthogonalLoop=1;jettySize=auto;html=1;dashed=1;labelBackgroundColor=#114B5F;strokeColor=#d6b656;strokeWidth=3;align=center;verticalAlign=middle;fontFamily=Helvetica;fontSize=11;fontColor=#E4FDE1;endArrow=none;endFill=0;fillColor=#fff2cc;gradientColor=#ffd966;flowAnimation=0;" edge="1" parent="Ec6M8PJLVspDRbuUPbAi-1" source="Ec6M8PJLVspDRbuUPbAi-6">
          <mxGeometry relative="1" as="geometry">
            <mxPoint x="468" y="166" as="targetPoint" />
          </mxGeometry>
        </mxCell>
        <mxCell id="Ec6M8PJLVspDRbuUPbAi-16" style="edgeStyle=orthogonalEdgeStyle;shape=connector;curved=1;rounded=1;comic=0;orthogonalLoop=1;jettySize=auto;html=1;entryX=0.03;entryY=0.02;entryDx=0;entryDy=0;entryPerimeter=0;dashed=1;labelBackgroundColor=#114B5F;strokeColor=#d6b656;strokeWidth=3;align=center;verticalAlign=middle;fontFamily=Helvetica;fontSize=11;fontColor=#E4FDE1;endArrow=none;endFill=0;fillColor=#fff2cc;gradientColor=#ffd966;flowAnimation=0;" edge="1" parent="Ec6M8PJLVspDRbuUPbAi-1" target="Ec6M8PJLVspDRbuUPbAi-10">
          <mxGeometry relative="1" as="geometry">
            <mxPoint x="604.5100000000002" y="166" as="sourcePoint" />
            <Array as="points">
              <mxPoint x="787" y="166" />
              <mxPoint x="787" y="152" />
              <mxPoint x="971" y="152" />
            </Array>
          </mxGeometry>
        </mxCell>
        <mxCell id="tFr5WUy8yFj0PDaDdnyf-0" value="&lt;font style=&quot;font-size: 18px;&quot;&gt;Ubiquiti&lt;br style=&quot;color: rgb(255, 255, 255); font-size: 18px; font-weight: 700;&quot;&gt;&lt;span style=&quot;font-size: 18px;&quot;&gt;Servers&lt;br&gt;&lt;/span&gt;&lt;br style=&quot;font-size: 18px;&quot;&gt;&lt;span style=&quot;font-size: 18px;&quot;&gt;&lt;b&gt;unifi.ui.com&lt;/b&gt;&lt;/span&gt;&lt;br style=&quot;font-size: 18px;&quot;&gt;&lt;/font&gt;" style="rounded=1;whiteSpace=wrap;html=1;fillColor=#007FFF;strokeColor=#028090;fontColor=#E4FDE1;fontSize=18;" vertex="1" parent="Ec6M8PJLVspDRbuUPbAi-1">
          <mxGeometry x="452" y="147" width="163" height="105" as="geometry" />
        </mxCell>
      </root>
    </mxGraphModel>
  </diagram>
  <diagram name="Proxy" id="cdq1DQG7RG5JodPIzn5z">
    <mxGraphModel dx="1266" dy="918" grid="0" gridSize="10" guides="1" tooltips="1" connect="1" arrows="1" fold="1" page="0" pageScale="1" pageWidth="850" pageHeight="1100" background="#114B5F" math="0" shadow="0">
      <root>
        <mxCell id="oqm1U1qw8Ko0b_N8M9nM-0" />
        <mxCell id="oqm1U1qw8Ko0b_N8M9nM-1" parent="oqm1U1qw8Ko0b_N8M9nM-0" />
        <mxCell id="oqm1U1qw8Ko0b_N8M9nM-2" style="edgeStyle=orthogonalEdgeStyle;rounded=1;orthogonalLoop=1;jettySize=auto;html=1;strokeColor=none;strokeWidth=3;labelBackgroundColor=#114B5F;fontColor=#E4FDE1;" edge="1" parent="oqm1U1qw8Ko0b_N8M9nM-1">
          <mxGeometry relative="1" as="geometry">
            <mxPoint x="646" y="286" as="sourcePoint" />
            <mxPoint x="651" y="307" as="targetPoint" />
          </mxGeometry>
        </mxCell>
        <mxCell id="oqm1U1qw8Ko0b_N8M9nM-3" value="&lt;font style=&quot;font-size: 15px;&quot;&gt;Home or Office&lt;/font&gt;" style="swimlane;whiteSpace=wrap;html=1;fontFamily=Helvetica;fontSize=11;fontColor=default;labelBackgroundColor=none;" vertex="1" parent="oqm1U1qw8Ko0b_N8M9nM-1">
          <mxGeometry x="21" y="26" width="285" height="409" as="geometry" />
        </mxCell>
        <mxCell id="oqm1U1qw8Ko0b_N8M9nM-4" style="edgeStyle=orthogonalEdgeStyle;shape=connector;curved=1;rounded=1;comic=0;orthogonalLoop=1;jettySize=auto;html=1;dashed=1;labelBackgroundColor=#114B5F;strokeColor=#d6b656;strokeWidth=3;fontFamily=Helvetica;fontSize=11;fontColor=#E4FDE1;endArrow=none;endFill=0;fillColor=#fff2cc;gradientColor=#ffd966;flowAnimation=0;" edge="1" parent="oqm1U1qw8Ko0b_N8M9nM-3" source="oqm1U1qw8Ko0b_N8M9nM-5" target="oqm1U1qw8Ko0b_N8M9nM-6">
          <mxGeometry relative="1" as="geometry">
            <Array as="points">
              <mxPoint x="68" y="128.5" />
            </Array>
          </mxGeometry>
        </mxCell>
        <mxCell id="oqm1U1qw8Ko0b_N8M9nM-5" value="&lt;font style=&quot;font-size: 18px;&quot;&gt;UniFi&amp;nbsp;&lt;br&gt;Devices&lt;br&gt;&lt;/font&gt;" style="sketch=0;pointerEvents=1;shadow=0;dashed=0;html=1;strokeColor=none;fillColor=none;labelPosition=center;verticalLabelPosition=bottom;verticalAlign=top;align=center;outlineConnect=0;shape=mxgraph.veeam2.nas;fontFamily=Helvetica;fontSize=11;fontColor=#E4FDE1;" vertex="1" parent="oqm1U1qw8Ko0b_N8M9nM-3">
          <mxGeometry x="22" y="93.5" width="90.5" height="75" as="geometry" />
        </mxCell>
        <mxCell id="oqm1U1qw8Ko0b_N8M9nM-6" value="&lt;font style=&quot;font-size: 17px&quot;&gt;Firewall&lt;br&gt;&lt;/font&gt;" style="fontColor=#E4FDE1;verticalAlign=top;verticalLabelPosition=bottom;labelPosition=center;align=center;html=1;outlineConnect=0;fillColor=#F45B69;strokeColor=#028090;gradientDirection=north;strokeWidth=2;shape=mxgraph.networks.firewall;" vertex="1" parent="oqm1U1qw8Ko0b_N8M9nM-3">
          <mxGeometry x="187" y="93.5" width="80" height="80" as="geometry" />
        </mxCell>
        <mxCell id="oqm1U1qw8Ko0b_N8M9nM-7" value="" style="editableCssRules=.*;html=1;shape=image;verticalLabelPosition=bottom;labelBackgroundColor=#ffffff;verticalAlign=top;aspect=fixed;imageAspect=0;image=data:image/svg+xml,PHN2ZyB4bWxucz0iaHR0cDovL3d3dy53My5vcmcvMjAwMC9zdmciIHhtbG5zOnY9Imh0dHBzOi8vdmVjdGEuaW8vbmFubyIgd2lkdGg9IjMxMC43NzU2MDY1NDM4NjAyNSIgaGVpZ2h0PSIzNzcuOTUzMDI4ODM1NTI1NDYiIHZpZXdCb3g9Ii0wLjE0MDAwMDAwMDU5NjA0NjQ1IC0wLjQ2NzAwMDAwNzYyOTM5NDUzIDgyLjIyNTk5NzkyNDgwNDY5IDEwMC4wMDAwMDc2MjkzOTQ1MyI+JiN4YTs8c3R5bGUgdHlwZT0idGV4dC9jc3MiPiYjeGE7CS5zdDB7ZmlsbDojNDI4NWY0O30mI3hhOwkuc3Qxe2ZpbGw6IzY2OWRmNjt9JiN4YTsJLnN0MntmaWxsOiNmZmY7fSYjeGE7PC9zdHlsZT4mI3hhOwk8cGF0aCBjbGFzcz0ic3QwIiBkPSJNNDAuOTczLS40NjdsNDEuMTEzIDE3LjQ5M3YyOS42NTRjMCAyNy40MTgtMjQuNjA4IDUwLjgzNi00MS4xMTMgNTIuODUzeiIvPiYjeGE7CTxwYXRoIGNsYXNzPSJzdDEiIGQ9Ik00MC45NzMtLjQ2N0wtLjE0IDE3LjAyNXYyOS42NTRjMCAyNy40MTggMjQuNjA4IDUwLjgzNiA0MS4xMTMgNTIuODUzeiIvPiYjeGE7CTxwYXRoIGNsYXNzPSJzdDIiIGQ9Ik00MS4yNTMgMTYuNjA1Yy05LjU4NCAwLTE3LjQ0NSA3Ljg2Mi0xNy40NDUgMTcuNDQ1IDAgOC4wODQgNS41OTQgMTQuOTQyIDEzLjA5NiAxNi44OTF2OS40ODhoLTkuODY5djguNzAxaDkuODY5djUuMzc3aC02LjMxNXY4LjcwMWg2LjMxNXYyLjE5N2g4LjcwMVY1MC45NDFDNTMuMTA2IDQ4Ljk5MiA1OC43IDQyLjEzNCA1OC43IDM0LjA1YzAtOS41ODQtNy44NjMtMTcuNDQ1LTE3LjQ0Ny0xNy40NDV6bTAgOC42OTlBOC42OCA4LjY4IDAgMCAxIDUwIDM0LjA1YTguNjggOC42OCAwIDAgMS04Ljc0OCA4Ljc0NiA4LjY4IDguNjggMCAwIDEtOC43NDYtOC43NDYgOC42OCA4LjY4IDAgMCAxIDguNzQ2LTguNzQ2eiIvPiYjeGE7PC9zdmc+;fontFamily=Helvetica;fontSize=11;fontColor=#E4FDE1;" vertex="1" parent="oqm1U1qw8Ko0b_N8M9nM-3">
          <mxGeometry x="35.25" y="235.5" width="64" height="80" as="geometry" />
        </mxCell>
        <mxCell id="oqm1U1qw8Ko0b_N8M9nM-8" value="" style="edgeStyle=orthogonalEdgeStyle;rounded=1;orthogonalLoop=1;jettySize=auto;html=1;strokeColor=none;strokeWidth=3;labelBackgroundColor=#114B5F;fontColor=#E4FDE1;" edge="1" parent="oqm1U1qw8Ko0b_N8M9nM-1">
          <mxGeometry relative="1" as="geometry">
            <mxPoint x="137" y="171" as="sourcePoint" />
            <mxPoint x="561" y="236" as="targetPoint" />
          </mxGeometry>
        </mxCell>
        <mxCell id="oqm1U1qw8Ko0b_N8M9nM-9" value="&lt;font style=&quot;font-size: 15px;&quot;&gt;Off Site Locations&lt;/font&gt;" style="swimlane;whiteSpace=wrap;html=1;fontFamily=Helvetica;fontSize=11;fontColor=default;labelBackgroundColor=none;" vertex="1" parent="oqm1U1qw8Ko0b_N8M9nM-1">
          <mxGeometry x="794" y="26" width="285" height="412" as="geometry" />
        </mxCell>
        <mxCell id="oqm1U1qw8Ko0b_N8M9nM-10" value="" style="verticalLabelPosition=bottom;html=1;verticalAlign=top;align=center;strokeColor=none;fillColor=#00BEF2;shape=mxgraph.azure.mobile;pointerEvents=1;fontFamily=Helvetica;fontSize=11;fontColor=#E4FDE1;" vertex="1" parent="oqm1U1qw8Ko0b_N8M9nM-9">
          <mxGeometry x="175" y="159" width="56" height="82" as="geometry" />
        </mxCell>
        <mxCell id="oqm1U1qw8Ko0b_N8M9nM-11" value="" style="shape=umlActor;verticalLabelPosition=bottom;verticalAlign=top;html=1;outlineConnect=0;fontFamily=Helvetica;fontSize=11;fontColor=#E4FDE1;" vertex="1" parent="oqm1U1qw8Ko0b_N8M9nM-9">
          <mxGeometry x="74" y="159" width="53" height="98" as="geometry" />
        </mxCell>
        <mxCell id="oqm1U1qw8Ko0b_N8M9nM-12" value="" style="editableCssRules=.*;html=1;shape=image;verticalLabelPosition=bottom;labelBackgroundColor=#ffffff;verticalAlign=top;aspect=fixed;imageAspect=0;image=data:image/svg+xml,PHN2ZyB4bWxucz0iaHR0cDovL3d3dy53My5vcmcvMjAwMC9zdmciIHhtbG5zOnY9Imh0dHBzOi8vdmVjdGEuaW8vbmFubyIgd2lkdGg9IjMxMC43NzU2MDY1NDM4NjAyNSIgaGVpZ2h0PSIzNzcuOTUzMDI4ODM1NTI1NDYiIHZpZXdCb3g9Ii0wLjE0MDAwMDAwMDU5NjA0NjQ1IC0wLjQ2NzAwMDAwNzYyOTM5NDUzIDgyLjIyNTk5NzkyNDgwNDY5IDEwMC4wMDAwMDc2MjkzOTQ1MyI+JiN4YTs8c3R5bGUgdHlwZT0idGV4dC9jc3MiPiYjeGE7CS5zdDB7ZmlsbDojNDI4NWY0O30mI3hhOwkuc3Qxe2ZpbGw6IzY2OWRmNjt9JiN4YTsJLnN0MntmaWxsOiNmZmY7fSYjeGE7PC9zdHlsZT4mI3hhOwk8cGF0aCBjbGFzcz0ic3QwIiBkPSJNNDAuOTczLS40NjdsNDEuMTEzIDE3LjQ5M3YyOS42NTRjMCAyNy40MTgtMjQuNjA4IDUwLjgzNi00MS4xMTMgNTIuODUzeiIvPiYjeGE7CTxwYXRoIGNsYXNzPSJzdDEiIGQ9Ik00MC45NzMtLjQ2N0wtLjE0IDE3LjAyNXYyOS42NTRjMCAyNy40MTggMjQuNjA4IDUwLjgzNiA0MS4xMTMgNTIuODUzeiIvPiYjeGE7CTxwYXRoIGNsYXNzPSJzdDIiIGQ9Ik00MS4yNTMgMTYuNjA1Yy05LjU4NCAwLTE3LjQ0NSA3Ljg2Mi0xNy40NDUgMTcuNDQ1IDAgOC4wODQgNS41OTQgMTQuOTQyIDEzLjA5NiAxNi44OTF2OS40ODhoLTkuODY5djguNzAxaDkuODY5djUuMzc3aC02LjMxNXY4LjcwMWg2LjMxNXYyLjE5N2g4LjcwMVY1MC45NDFDNTMuMTA2IDQ4Ljk5MiA1OC43IDQyLjEzNCA1OC43IDM0LjA1YzAtOS41ODQtNy44NjMtMTcuNDQ1LTE3LjQ0Ny0xNy40NDV6bTAgOC42OTlBOC42OCA4LjY4IDAgMCAxIDUwIDM0LjA1YTguNjggOC42OCAwIDAgMS04Ljc0OCA4Ljc0NiA4LjY4IDguNjggMCAwIDEtOC43NDYtOC43NDYgOC42OCA4LjY4IDAgMCAxIDguNzQ2LTguNzQ2eiIvPiYjeGE7PC9zdmc+;fontFamily=Helvetica;fontSize=11;fontColor=#E4FDE1;" vertex="1" parent="oqm1U1qw8Ko0b_N8M9nM-9">
          <mxGeometry x="74" y="282" width="64" height="80" as="geometry" />
        </mxCell>
        <mxCell id="oqm1U1qw8Ko0b_N8M9nM-13" value="&lt;font style=&quot;font-size: 15px;&quot;&gt;Internet&lt;/font&gt;" style="swimlane;whiteSpace=wrap;html=1;fontFamily=Helvetica;fontSize=11;fontColor=default;labelBackgroundColor=none;" vertex="1" parent="oqm1U1qw8Ko0b_N8M9nM-1">
          <mxGeometry x="401" y="24" width="285" height="411" as="geometry" />
        </mxCell>
        <mxCell id="RHJSCkQ38Oa6LchQ6maN-3" value="&lt;font style=&quot;font-size: 17px;&quot;&gt;Reverse Proxy?&lt;br&gt;&lt;/font&gt;" style="outlineConnect=0;dashed=0;verticalLabelPosition=bottom;verticalAlign=top;align=center;html=1;shape=mxgraph.aws3.internet_gateway;fillColor=#F58534;gradientColor=none;fontFamily=Helvetica;fontSize=11;fontColor=#E4FDE1;" vertex="1" parent="oqm1U1qw8Ko0b_N8M9nM-13">
          <mxGeometry x="99" y="73" width="123" height="129" as="geometry" />
        </mxCell>
        <mxCell id="F10zaS3CyXVFY6QeGM5x-2" value="" style="editableCssRules=.*;html=1;shape=image;verticalLabelPosition=bottom;labelBackgroundColor=#ffffff;verticalAlign=top;aspect=fixed;imageAspect=0;image=data:image/svg+xml,PHN2ZyB4bWxucz0iaHR0cDovL3d3dy53My5vcmcvMjAwMC9zdmciIHhtbG5zOnY9Imh0dHBzOi8vdmVjdGEuaW8vbmFubyIgd2lkdGg9IjMxMC43NzU2MDY1NDM4NjAyNSIgaGVpZ2h0PSIzNzcuOTUzMDI4ODM1NTI1NDYiIHZpZXdCb3g9Ii0wLjE0MDAwMDAwMDU5NjA0NjQ1IC0wLjQ2NzAwMDAwNzYyOTM5NDUzIDgyLjIyNTk5NzkyNDgwNDY5IDEwMC4wMDAwMDc2MjkzOTQ1MyI+JiN4YTs8c3R5bGUgdHlwZT0idGV4dC9jc3MiPiYjeGE7CS5zdDB7ZmlsbDojNDI4NWY0O30mI3hhOwkuc3Qxe2ZpbGw6IzY2OWRmNjt9JiN4YTsJLnN0MntmaWxsOiNmZmY7fSYjeGE7PC9zdHlsZT4mI3hhOwk8cGF0aCBjbGFzcz0ic3QwIiBkPSJNNDAuOTczLS40NjdsNDEuMTEzIDE3LjQ5M3YyOS42NTRjMCAyNy40MTgtMjQuNjA4IDUwLjgzNi00MS4xMTMgNTIuODUzeiIvPiYjeGE7CTxwYXRoIGNsYXNzPSJzdDEiIGQ9Ik00MC45NzMtLjQ2N0wtLjE0IDE3LjAyNXYyOS42NTRjMCAyNy40MTggMjQuNjA4IDUwLjgzNiA0MS4xMTMgNTIuODUzeiIvPiYjeGE7CTxwYXRoIGNsYXNzPSJzdDIiIGQ9Ik00MS4yNTMgMTYuNjA1Yy05LjU4NCAwLTE3LjQ0NSA3Ljg2Mi0xNy40NDUgMTcuNDQ1IDAgOC4wODQgNS41OTQgMTQuOTQyIDEzLjA5NiAxNi44OTF2OS40ODhoLTkuODY5djguNzAxaDkuODY5djUuMzc3aC02LjMxNXY4LjcwMWg2LjMxNXYyLjE5N2g4LjcwMVY1MC45NDFDNTMuMTA2IDQ4Ljk5MiA1OC43IDQyLjEzNCA1OC43IDM0LjA1YzAtOS41ODQtNy44NjMtMTcuNDQ1LTE3LjQ0Ny0xNy40NDV6bTAgOC42OTlBOC42OCA4LjY4IDAgMCAxIDUwIDM0LjA1YTguNjggOC42OCAwIDAgMS04Ljc0OCA4Ljc0NiA4LjY4IDguNjggMCAwIDEtOC43NDYtOC43NDYgOC42OCA4LjY4IDAgMCAxIDguNzQ2LTguNzQ2eiIvPiYjeGE7PC9zdmc+;fontFamily=Helvetica;fontSize=11;fontColor=#E4FDE1;" vertex="1" parent="oqm1U1qw8Ko0b_N8M9nM-13">
          <mxGeometry x="41" y="78" width="41" height="51.25" as="geometry" />
        </mxCell>
        <mxCell id="F10zaS3CyXVFY6QeGM5x-6" value="" style="shape=mxgraph.signs.healthcare.eye;html=1;pointerEvents=1;fillColor=#ff7300;strokeColor=none;verticalLabelPosition=bottom;verticalAlign=top;align=center;fontFamily=Helvetica;fontSize=11;fontColor=#E4FDE1;" vertex="1" parent="oqm1U1qw8Ko0b_N8M9nM-13">
          <mxGeometry x="10" y="47" width="48" height="31" as="geometry" />
        </mxCell>
        <mxCell id="F10zaS3CyXVFY6QeGM5x-7" value="" style="shape=mxgraph.signs.healthcare.eye;html=1;pointerEvents=1;fillColor=#ff7300;strokeColor=none;verticalLabelPosition=bottom;verticalAlign=top;align=center;fontFamily=Helvetica;fontSize=11;fontColor=#E4FDE1;" vertex="1" parent="oqm1U1qw8Ko0b_N8M9nM-13">
          <mxGeometry x="63" y="47" width="48" height="31" as="geometry" />
        </mxCell>
        <mxCell id="OWTNhhmY3Pv-XR3Eaae2-0" value="&lt;br style=&quot;font-size: 23px;&quot;&gt;Cloudflare Tunnel" style="text;html=1;strokeColor=none;fillColor=none;align=center;verticalAlign=middle;whiteSpace=wrap;rounded=0;fontSize=23;fontFamily=Helvetica;fontColor=#E4FDE1;fontStyle=1" vertex="1" parent="oqm1U1qw8Ko0b_N8M9nM-13">
          <mxGeometry x="22" y="208" width="241" height="122" as="geometry" />
        </mxCell>
        <mxCell id="oqm1U1qw8Ko0b_N8M9nM-15" style="edgeStyle=orthogonalEdgeStyle;shape=connector;curved=1;rounded=1;comic=0;orthogonalLoop=1;jettySize=auto;html=1;dashed=1;labelBackgroundColor=#114B5F;strokeColor=#d6b656;strokeWidth=3;align=center;verticalAlign=middle;fontFamily=Helvetica;fontSize=11;fontColor=#E4FDE1;endArrow=none;endFill=0;fillColor=#fff2cc;gradientColor=#ffd966;flowAnimation=0;entryX=0;entryY=0.5;entryDx=0;entryDy=0;entryPerimeter=0;" edge="1" parent="oqm1U1qw8Ko0b_N8M9nM-1" source="oqm1U1qw8Ko0b_N8M9nM-6" target="RHJSCkQ38Oa6LchQ6maN-3">
          <mxGeometry relative="1" as="geometry">
            <mxPoint x="468" y="166" as="targetPoint" />
          </mxGeometry>
        </mxCell>
        <mxCell id="oqm1U1qw8Ko0b_N8M9nM-16" style="edgeStyle=orthogonalEdgeStyle;shape=connector;curved=1;rounded=1;comic=0;orthogonalLoop=1;jettySize=auto;html=1;entryX=0.03;entryY=0.02;entryDx=0;entryDy=0;entryPerimeter=0;dashed=1;labelBackgroundColor=#114B5F;strokeColor=#d6b656;strokeWidth=3;align=center;verticalAlign=middle;fontFamily=Helvetica;fontSize=11;fontColor=#E4FDE1;endArrow=none;endFill=0;fillColor=#fff2cc;gradientColor=#ffd966;flowAnimation=0;" edge="1" parent="oqm1U1qw8Ko0b_N8M9nM-1" target="oqm1U1qw8Ko0b_N8M9nM-10" source="RHJSCkQ38Oa6LchQ6maN-3">
          <mxGeometry relative="1" as="geometry">
            <mxPoint x="604.5100000000002" y="166" as="sourcePoint" />
            <Array as="points">
              <mxPoint x="787" y="166" />
              <mxPoint x="787" y="152" />
              <mxPoint x="971" y="152" />
            </Array>
          </mxGeometry>
        </mxCell>
      </root>
    </mxGraphModel>
  </diagram>
</mxfile>
